<?xml version="1.0" standalone="no"?><!DOCTYPE svg PUBLIC "-//W3C//DTD SVG 1.1//EN" "http://www.w3.org/Graphics/SVG/1.1/DTD/svg11.dtd"><svg t="1566355309395" class="icon" viewBox="0 0 1024 1024" version="1.1" xmlns="http://www.w3.org/2000/svg" p-id="15792" xmlns:xlink="http://www.w3.org/1999/xlink" width="200" height="200"><defs><style type="text/css"></style></defs><path d="M0 512v512h1024V0H0v512z m356.864-331.776c-1.024 6.656-4.096 15.872-6.144 20.48-3.584 8.704 2.048 9.216 78.848 9.216H512v51.2h-43.52c-24.064 0-43.52 0.512-43.52 1.024 0 1.024 4.608 16.384 10.24 34.816 5.632 18.432 10.24 33.792 10.24 34.304 0 1.024-18.432 1.536-40.448 1.536h-40.448l-3.584-16.896c-9.216-45.056-13.824-54.784-27.136-54.784-7.68 0-21.504 8.192-35.328 20.992-22.016 19.968-71.168 46.592-99.84 53.76-14.336 3.072-14.336 3.072-14.336-22.528 0-23.552 1.024-26.112 19.968-38.4 25.088-16.384 41.984-38.912 59.392-76.8l13.312-29.184h41.472c39.936 0 40.96 0.512 38.4 11.264z m306.688 6.656l-3.584 17.92h179.712v56.32h-96.768l10.24 29.184c14.848 43.008 15.36 42.496-28.16 42.496h-37.888l-3.584-16.896c-2.048-8.704-6.144-25.088-8.704-35.84-5.12-17.92-7.168-18.944-25.6-18.944-16.384 0-23.552 3.584-41.472 20.992-19.456 18.944-76.288 50.176-104.448 58.368-10.752 3.072-11.776 1.536-11.776-18.944 0-20.992 2.048-24.576 27.648-46.592 25.6-22.016 49.152-59.392 61.44-97.28 2.048-7.168 9.216-8.704 44.544-8.704h41.472l-3.072 17.92z m-317.44 162.304c4.608 8.704 13.824 32.256 20.48 51.2 13.824 41.472 14.336 40.96-36.352 38.912l-34.816-1.536-11.264-35.84c-6.144-19.968-14.848-43.52-19.968-52.736L255.488 332.8h40.96c40.96 0 41.472 0 49.664 16.384z m462.848 225.792c0 200.192-0.512 217.6-9.216 233.984-15.872 28.672-40.448 37.888-103.424 38.4h-53.76l-1.536-29.696-1.536-29.184h33.792c29.184 0 35.328-1.536 46.08-12.8l12.8-12.288V419.84H384V358.4h424.96v216.576zM291.84 652.8v202.24h-76.8V450.56h76.8V652.8z m363.52-57.344c0 182.784 4.608 177.664-167.424 177.664H373.76V471.04h281.6v124.416z" p-id="15793" fill="#e76350"></path><path d="M450.56 560.64v33.28h128V527.36h-128v33.28zM450.56 680.96v35.84h55.808c65.024 0 69.12-2.56 69.632-43.008v-26.112l-62.464-1.536-62.976-1.536v36.352z" p-id="15794" fill="#e76350"></path></svg>