<?xml version="1.0" standalone="no"?><!DOCTYPE svg PUBLIC "-//W3C//DTD SVG 1.1//EN" "http://www.w3.org/Graphics/SVG/1.1/DTD/svg11.dtd"><svg t="1566355031628" class="icon" viewBox="0 0 1024 1024" version="1.1" xmlns="http://www.w3.org/2000/svg" p-id="4193" xmlns:xlink="http://www.w3.org/1999/xlink" width="200" height="200"><defs><style type="text/css"></style></defs><path d="M512 512m-512 0a512 512 0 1 0 1024 0 512 512 0 1 0-1024 0Z" fill="#6AE5E1" p-id="4194"></path><path d="M967.2 472.8c-32-111.2-146.4-176-257.6-148L160 481.6v0.8C53.6 518.4-7.2 632.8 24 741.6c32 113.6 150.4 179.2 263.2 146.4 88.8-25.6 148-103.2 154.4-190.4L588.8 656c51.2 70.4 142.4 105.6 231.2 80 113.6-32 179.2-149.6 147.2-263.2z" fill="#36535E" p-id="4195"></path><path d="M912 193.6c5.6 6.4 10.4 13.6 15.2 20 6.4-86.4-45.6-161.6-139.2-193.6C658.4-23.2 496 53.6 442.4 186.4c-52.8 128.8-9.6 260.8-8 266.4 0.8 3.2 4 5.6 8 5.6 0.8 0 1.6 0 2.4-0.8 4-1.6 6.4-5.6 4.8-10.4-0.8-1.6-43.2-132 7.2-255.2C501.6 83.2 612.8 24 709.6 24c25.6 0 50.4 4 73.6 11.2 80 27.2 127.2 87.2 128.8 158.4z" fill="#284049" p-id="4196"></path><path d="M228.8 904C130.4 904 43.2 838.4 16 743.2c-32-112 28.8-229.6 138.4-268.8 0.8-0.8 1.6-0.8 2.4-1.6l550.4-156.8h2.4c16.8-4 34.4-6.4 52-6.4 98.4 0 185.6 65.6 212.8 160 16 56.8 9.6 116.8-19.2 168-28.8 51.2-76 88.8-132.8 104.8-20 5.6-42.4 8-63.2 8-68.8 0-132-32-173.6-87.2l-136 40.8c-8.8 90.4-72 166.4-159.2 191.2-20 5.6-40.8 8.8-61.6 8.8z m-64-416c-0.8 0.8-1.6 0.8-1.6 0.8C59.2 524.8 2.4 634.4 32 739.2c24.8 88 106.4 148.8 197.6 148.8 19.2 0 37.6-2.4 56-8 82.4-23.2 142.4-96.8 148.8-182.4 0-3.2 2.4-6.4 5.6-7.2L587.2 648c3.2-0.8 6.4 0 8.8 3.2C634.4 704.8 696.8 736 762.4 736c19.2 0 37.6-2.4 56-8 52.8-15.2 96.8-49.6 123.2-97.6 26.4-48 32.8-103.2 18.4-156-24.8-87.2-106.4-148.8-197.6-148.8-16.8 0-33.6 2.4-50.4 6.4h-1.6L164.8 488z" fill="#284049" p-id="4197"></path><path d="M369.616 349.64l115.4-32.904 17.336 60.784-115.408 32.904z" fill="#415E6D" p-id="4198"></path><path d="M387.2 418.4c-1.6 0-2.4 0-4-0.8s-3.2-2.4-4-4.8L361.6 352c-1.6-4 1.6-8.8 5.6-9.6l115.2-32.8c4-0.8 8.8 1.6 9.6 5.6l17.6 60.8c0.8 2.4 0 4-0.8 6.4-0.8 1.6-2.4 3.2-4.8 4l-115.2 32.8c0-0.8-0.8-0.8-1.6-0.8z m-8-63.2l12.8 45.6 100-28.8-12.8-45.6-100 28.8z" fill="#284049" p-id="4199"></path><path d="M24.278114 699.272311a213.6 213.6 0 1 0 410.827278-117.135766 213.6 213.6 0 1 0-410.827278 117.135766Z" fill="#415E6D" p-id="4200"></path><path d="M557.065117 547.323329a213.6 213.6 0 1 0 410.827278-117.135766 213.6 213.6 0 1 0-410.827278 117.135766Z" fill="#415E6D" p-id="4201"></path><path d="M159.728 438.344l550.096-156.84 78.312 274.656-550.096 156.848z" fill="#415E6D" p-id="4202"></path><path d="M666.354935 483.284513a41.6 41.6 0 1 0 80.011306-22.812959 41.6 41.6 0 1 0-80.011306 22.812959Z" fill="#415E6D" p-id="4203"></path><path d="M537.6 607.2c-7.2 0-13.6-4.8-15.2-12-2.4-8.8 2.4-17.6 11.2-20l55.2-16c8.8-2.4 17.6 2.4 20 11.2 2.4 8.8-2.4 17.6-11.2 20l-55.2 16c-2.4 0.8-4 0.8-4.8 0.8z" fill="#415E6D" p-id="4204"></path><path d="M773.637772 453.103935a41.6 41.6 0 1 0 80.008518-22.822733 41.6 41.6 0 1 0-80.008518 22.822733Z" fill="#415E6D" p-id="4205"></path><path d="M696.65732 589.7815a41.6 41.6 0 1 0 80.008518-22.822733 41.6 41.6 0 1 0-80.008518 22.822733Z" fill="#415E6D" p-id="4206"></path><path d="M803.984937 559.4621a41.6 41.6 0 1 0 80.008517-22.822733 41.6 41.6 0 1 0-80.008517 22.822733Z" fill="#415E6D" p-id="4207"></path><path d="M307.2 678.4c8.8-2.4 13.6-11.2 11.2-20l-11.2-39.2c-2.4-8.8-11.2-13.6-20-11.2l-36.8 10.4c-8.8 2.4-17.6-2.4-20-11.2l-10.4-36.8c-2.4-8.8-11.2-13.6-20-11.2l-39.2 11.2c-8.8 2.4-13.6 11.2-11.2 20l10.4 36.8c2.4 8.8-2.4 17.6-11.2 20L112 658.4c-8.8 2.4-13.6 11.2-11.2 20l11.2 39.2c2.4 8.8 11.2 13.6 20 11.2l36.8-10.4c8.8-2.4 17.6 2.4 20 11.2l10.4 36.8c2.4 8.8 11.2 13.6 20 11.2l39.2-11.2c8.8-2.4 13.6-11.2 11.2-20l-10.4-36.8c-2.4-8.8 2.4-17.6 11.2-20l36.8-11.2z" fill="#415E6D" p-id="4208"></path><path d="M309.6 655.2c8.8-2.4 13.6-11.2 11.2-20l-11.2-39.2c-2.4-8.8-11.2-13.6-20-11.2l-36.8 10.4c-8.8 2.4-17.6-2.4-20-11.2l-10.4-36.8c-2.4-8.8-11.2-13.6-20-11.2l-39.2 11.2c-8.8 2.4-13.6 11.2-11.2 20l10.4 36.8c2.4 8.8-2.4 17.6-11.2 20l-36.8 10.4c-8.8 2.4-13.6 11.2-11.2 20l11.2 39.2c2.4 8.8 11.2 13.6 20 11.2l36.8-10.4c8.8-2.4 17.6 2.4 20 11.2l10.4 36.8c2.4 8.8 11.2 13.6 20 11.2l39.2-11.2c8.8-2.4 13.6-11.2 11.2-20l-10.4-36.8c-2.4-8.8 2.4-17.6 11.2-20l36.8-10.4z" fill="#5F8493" p-id="4209"></path><path d="M666.319839 461.689418a41.6 41.6 0 1 0 80.011305-22.812958 41.6 41.6 0 1 0-80.011305 22.812958Z" fill="#71EAA8" p-id="4210"></path><path d="M773.604855 431.508538a41.6 41.6 0 1 0 80.008517-22.822733 41.6 41.6 0 1 0-80.008517 22.822733Z" fill="#3AD0F9" p-id="4211"></path><path d="M696.841658 568.955723a41.6 41.6 0 1 0 80.008517-22.822733 41.6 41.6 0 1 0-80.008517 22.822733Z" fill="#F74541" p-id="4212"></path><path d="M803.950132 537.869205a41.6 41.6 0 1 0 80.008517-22.822733 41.6 41.6 0 1 0-80.008517 22.822733Z" fill="#FBD000" p-id="4213"></path><path d="M408.8 628c-7.2 0-13.6-4.8-15.2-12-2.4-8.8 2.4-17.6 11.2-20l55.2-16c8.8-2.4 17.6 2.4 20 11.2 2.4 8.8-2.4 17.6-11.2 20l-55.2 16c-1.6 0.8-3.2 0.8-4.8 0.8zM537.6 592c-7.2 0-13.6-4.8-15.2-12-2.4-8.8 2.4-17.6 11.2-20l55.2-16c8.8-2.4 17.6 2.4 20 11.2 2.4 8.8-2.4 17.6-11.2 20l-55.2 16c-2.4 0-4 0.8-4.8 0.8z" fill="#5F8493" p-id="4214"></path><path d="M229.6 864c-98.4 0-185.6-66.4-212.8-162.4-32-113.6 28.8-232 138.4-271.2 0.8-0.8 1.6-0.8 2.4-1.6l550.4-158.4h2.4c16.8-4 34.4-6.4 52-6.4 98.4 0 185.6 66.4 212.8 162.4 16 57.6 9.6 117.6-19.2 169.6-28.8 52-76 89.6-132.8 106.4-20 5.6-40 8.8-60.8 8.8-68.8 0-134.4-32.8-176-88l-136.8 39.2c-8.8 91.2-72 168-160 193.6-19.2 4.8-40 8-60 8z m-64.8-420c-0.8 0.8-1.6 0.8-1.6 0.8C59.2 480.8 2.4 591.2 32 697.6 56.8 786.4 138.4 848 229.6 848c19.2 0 37.6-2.4 56.8-8 83.2-24 142.4-98.4 148.8-184.8 0-3.2 2.4-6.4 5.6-7.2l147.2-42.4c3.2-0.8 6.4 0 8.8 3.2 38.4 53.6 100.8 85.6 166.4 85.6 19.2 0 37.6-2.4 56-8 52.8-15.2 96.8-50.4 123.2-98.4 26.4-48 32.8-104 18.4-157.6C935.2 341.6 853.6 280 762.4 280c-16.8 0-33.6 2.4-50.4 6.4h-1.6L164.8 444z" fill="#284049" p-id="4215"></path><path d="M217.6 760c-10.4 0-20-7.2-23.2-17.6L184 706.4c-0.8-4-5.6-6.4-9.6-5.6l-36.8 10.4c-2.4 0.8-4.8 0.8-6.4 0.8-10.4 0-20-7.2-23.2-17.6L96.8 656c-3.2-12.8 4-25.6 16-29.6l36.8-10.4c4-0.8 6.4-5.6 5.6-9.6l-10.4-36.8c-3.2-12.8 4-25.6 16-29.6l39.2-11.2c2.4-0.8 4-0.8 6.4-0.8 10.4 0 20 7.2 23.2 17.6l10.4 36.8c0.8 4 5.6 6.4 9.6 5.6l36.8-10.4c2.4-0.8 4-0.8 6.4-0.8 10.4 0 20 7.2 23.2 17.6l11.2 39.2c3.2 12.8-4 25.6-16 29.6L274.4 672c-4 0.8-6.4 5.6-5.6 9.6l10.4 36.8c3.2 12.8-4 25.6-16 29.6L224 759.2c-2.4 0.8-4.8 0.8-6.4 0.8zM176 684.8c10.4 0 20 7.2 23.2 17.6l10.4 36.8c0.8 3.2 4 5.6 8 5.6h2.4l39.2-11.2c4-0.8 6.4-5.6 5.6-9.6l-10.4-36.8c-3.2-12.8 4-25.6 16-29.6l36.8-10.4c4-0.8 6.4-5.6 5.6-9.6l-11.2-39.2c-0.8-4-5.6-6.4-9.6-5.6l-36.8 10.4c-2.4 0.8-4 0.8-6.4 0.8-10.4 0-20-7.2-23.2-17.6l-10.4-36.8c-0.8-4-5.6-6.4-9.6-5.6l-39.2 11.2c-4 0.8-6.4 5.6-5.6 9.6l10.4 36.8c3.2 12.8-4 25.6-16 29.6l-36.8 10.4c-4 0.8-6.4 5.6-5.6 9.6l11.2 39.2c0.8 4 5.6 6.4 9.6 5.6l36.8-10.4c1.6-0.8 4-0.8 5.6-0.8z" fill="#284049" p-id="4216"></path><path d="M182.4 583.2l5.6-23.2 16.8 16.8zM220.8 716.8l16.8 16 5.6-22.4zM276 616l23.2 5.6-16 16.8zM142.4 654.4l-16 16.8 23.2 6.4z" fill="#415E6D" p-id="4217"></path><path d="M704 496c-20.8 0-40-14.4-45.6-35.2-3.2-12-2.4-25.6 4-36.8 6.4-11.2 16-19.2 28.8-23.2 4-1.6 8.8-1.6 12.8-1.6 20.8 0 40 14.4 45.6 35.2 7.2 25.6-7.2 52-32.8 59.2-4 1.6-8.8 2.4-12.8 2.4z m0-80.8c-3.2 0-5.6 0.8-8.8 1.6-8 2.4-15.2 8-19.2 15.2-4 7.2-4.8 16-3.2 24.8 4 13.6 16.8 23.2 31.2 23.2 3.2 0 5.6-0.8 8.8-1.6 16.8-4.8 27.2-23.2 22.4-40-4.8-12.8-16.8-23.2-31.2-23.2zM816 464c-21.6 0-40-14.4-46.4-35.2-7.2-25.6 7.2-52 32.8-59.2 4-1.6 8.8-1.6 12.8-1.6 21.6 0 40 14.4 46.4 35.2 7.2 25.6-7.2 52-32.8 59.2-4 0.8-8 1.6-12.8 1.6z m0-80.8c-3.2 0-6.4 0.8-8.8 1.6-17.6 4.8-27.2 23.2-22.4 40 4 13.6 16.8 23.2 31.2 23.2 3.2 0 6.4-0.8 8.8-1.6 17.6-4.8 27.2-23.2 22.4-40-4-12.8-16.8-23.2-31.2-23.2zM736 608c-21.6 0-40-14.4-46.4-35.2-3.2-12-2.4-25.6 4-36.8 6.4-11.2 16.8-19.2 28.8-23.2 4-1.6 8.8-1.6 12.8-1.6 21.6 0 40 14.4 46.4 35.2 3.2 12 2.4 25.6-4 36.8-6.4 11.2-16.8 19.2-28.8 23.2-4 0.8-8 1.6-12.8 1.6z m0-80.8c-3.2 0-6.4 0.8-8.8 1.6-8 2.4-15.2 8-19.2 15.2-4 7.2-5.6 16-3.2 24.8 4 13.6 16.8 23.2 31.2 23.2 3.2 0 6.4-0.8 8.8-1.6 8-2.4 15.2-8 19.2-15.2 4-7.2 5.6-16 3.2-24.8-4-12.8-16.8-23.2-31.2-23.2zM848 576c-21.6 0-40-14.4-46.4-35.2-3.2-12-2.4-25.6 4-36.8 6.4-11.2 16.8-19.2 28.8-23.2 4-1.6 8.8-1.6 12.8-1.6 21.6 0 40 14.4 46.4 35.2 3.2 12 2.4 25.6-4 36.8-6.4 11.2-16.8 19.2-28.8 23.2-4 0.8-8 1.6-12.8 1.6z m0-80.8c-3.2 0-6.4 0.8-8.8 1.6-8 2.4-15.2 8-19.2 15.2-4 7.2-5.6 16-3.2 24.8 4 13.6 16.8 23.2 31.2 23.2 3.2 0 5.6-0.8 8.8-1.6 8-2.4 15.2-8 19.2-15.2 4-7.2 5.6-16 3.2-24.8-4-12.8-16.8-23.2-31.2-23.2zM408 640c-10.4 0-20-7.2-23.2-17.6-1.6-6.4-0.8-12.8 2.4-18.4 3.2-5.6 8-9.6 14.4-11.2l56-16c1.6-0.8 4-0.8 6.4-0.8 10.4 0 20 7.2 23.2 17.6 1.6 6.4 0.8 12.8-2.4 18.4-3.2 5.6-8 9.6-14.4 11.2l-56 16c-1.6 0.8-4 0.8-6.4 0.8z m56-48h-2.4l-56 16c-2.4 0.8-4 1.6-4.8 4-0.8 1.6-0.8 4 0 6.4 0.8 4 5.6 6.4 9.6 5.6l56-16c2.4-0.8 4-1.6 4.8-4 0.8-1.6 1.6-4 0.8-6.4-1.6-3.2-4.8-5.6-8-5.6zM536 600c-10.4 0-20-7.2-23.2-17.6-1.6-6.4-0.8-12.8 2.4-18.4 3.2-5.6 8-9.6 14.4-11.2l56-16c1.6-0.8 4-0.8 6.4-0.8 10.4 0 20 7.2 23.2 17.6 1.6 6.4 0.8 12.8-2.4 18.4-3.2 5.6-8 9.6-14.4 11.2l-56 16c-1.6 0-4 0.8-6.4 0.8z m56-48h-2.4l-56 16c-2.4 0.8-4 1.6-4.8 4-0.8 1.6-0.8 4 0 5.6 0.8 4 5.6 6.4 9.6 5.6l56-16c2.4-0.8 4-1.6 4.8-4 0.8-1.6 1.6-4 0.8-6.4-1.6-2.4-4.8-4.8-8-4.8z" fill="#284049" p-id="4218"></path><path d="M184 320c-17.6 0-32-14.4-32-32s14.4-32 32-32 32 14.4 32 32-14.4 32-32 32z m0-48.8c-9.6 0-16.8 7.2-16.8 16.8 0 9.6 8 16.8 16.8 16.8 9.6 0 16.8-7.2 16.8-16.8 0-8.8-7.2-16.8-16.8-16.8zM648 832c-17.6 0-32-14.4-32-32s14.4-32 32-32 32 14.4 32 32-14.4 32-32 32z m0-48.8c-9.6 0-16.8 7.2-16.8 16.8 0 9.6 8 16.8 16.8 16.8 9.6 0 16.8-7.2 16.8-16.8 0-8.8-7.2-16.8-16.8-16.8zM366.4 156.8c0-3.2-3.2-6.4-8-7.2l-15.2-2.4c-4-0.8-8.8-4.8-8.8-8.8l-2.4-15.2c-0.8-4-4-8-7.2-8s-6.4 3.2-7.2 8l-2.4 15.2c-0.8 4-4.8 8.8-8.8 8.8l-15.2 2.4c-4 0.8-8 4-8 7.2s3.2 6.4 8 7.2l15.2 2.4c4 0.8 8.8 4.8 8.8 8.8l2.4 15.2c0.8 4 4 8 7.2 8s6.4-3.2 7.2-8l2.4-16.8c0.8-4 4.8-8 8.8-8.8l14.4-0.8c4.8-0.8 8.8-4 8.8-7.2zM692.8 215.2c0-3.2-3.2-6.4-8-7.2l-15.2-2.4c-4-0.8-8.8-4.8-8.8-8.8l-2.4-15.2c-0.8-4-4-8-7.2-8s-6.4 3.2-7.2 8l-2.4 15.2c-0.8 4-4.8 8.8-8.8 8.8l-14.4 2.4c-4 0.8-8 4-8 7.2s3.2 6.4 8 7.2l15.2 2.4c4 0.8 8.8 4.8 8.8 8.8l2.4 15.2c0.8 4 4 8 7.2 8s6.4-3.2 7.2-8l2.4-16.8c0.8-4 4.8-8 8.8-8.8l14.4-0.8c4.8-1.6 8-4.8 8-7.2z" fill="#FFFFFF" p-id="4219"></path><path d="M544.8 503.2c-4.8 0-8-3.2-8-7.2-1.6-57.6 21.6-115.2 65.6-156.8 3.2-3.2 8.8-3.2 12 0s3.2 8 0 11.2c-40 38.4-62.4 92-60.8 145.6-0.8 3.2-4 6.4-8.8 7.2zM415.2 544c-2.4 0-5.6-1.6-7.2-4-18.4-32.8-45.6-60-78.4-78.4-4-2.4-5.6-7.2-3.2-11.2 2.4-4 7.2-5.6 11.2-3.2 36 20 64.8 48.8 84.8 84.8 2.4 4 0.8 8.8-3.2 11.2-1.6 0-3.2 0.8-4 0.8zM303.2 448c-0.8 0-1.6 0-2.4-0.8-9.6-4-20-6.4-30.4-8.8-4-0.8-7.2-4.8-6.4-9.6 0.8-4 4.8-7.2 9.6-6.4 11.2 2.4 22.4 5.6 32.8 9.6 4 1.6 6.4 6.4 4.8 10.4-2.4 4-4.8 5.6-8 5.6zM232 629.6c-15.2 0-20.8-7.2-25.6-22.4-1.6-4 0.8-8.8 4.8-10.4 4-1.6 8.8 0.8 10.4 4.8 4 12 4.8 13.6 23.2 9.6 4-0.8 8.8 1.6 9.6 6.4 0.8 4-1.6 8.8-6.4 9.6-6.4 1.6-12 2.4-16 2.4z" fill="#FFFFFF" p-id="4220"></path><path d="M724 453.6c-3.2 0-6.4-2.4-8-5.6-0.8-2.4-2.4-4.8-4.8-6.4-2.4-1.6-5.6-1.6-8-0.8-4 1.6-8.8-1.6-9.6-5.6-1.6-4 1.6-8.8 5.6-9.6 7.2-1.6 14.4-0.8 20 2.4 6.4 3.2 10.4 8.8 12.8 16 1.6 4-1.6 8.8-5.6 9.6h-2.4zM832 422.4c-3.2 0-6.4-2.4-8-5.6-0.8-2.4-2.4-4.8-4.8-6.4-2.4-1.6-5.6-1.6-8-0.8-4 0.8-8.8-1.6-9.6-5.6-1.6-4 1.6-8.8 5.6-9.6 7.2-1.6 14.4-0.8 20 2.4 6.4 3.2 10.4 8.8 12.8 16 1.6 4-1.6 8.8-5.6 9.6h-2.4zM753.6 561.6c-3.2 0-6.4-2.4-8-5.6-0.8-2.4-2.4-4.8-4.8-6.4-2.4-1.6-5.6-1.6-8-0.8-4 1.6-8.8-1.6-9.6-5.6-1.6-4 1.6-8.8 5.6-9.6 7.2-1.6 14.4-0.8 20 2.4 6.4 3.2 10.4 8.8 12.8 16 1.6 4-1.6 8.8-5.6 9.6h-2.4zM861.6 530.4c-3.2 0-6.4-2.4-8-5.6-0.8-2.4-2.4-4.8-4.8-6.4-2.4-1.6-5.6-1.6-8-0.8-4 1.6-8.8-1.6-9.6-5.6-1.6-4 1.6-8.8 5.6-9.6 7.2-1.6 14.4-0.8 20 2.4 6.4 3.2 10.4 8.8 12.8 16 1.6 4-1.6 8.8-5.6 9.6h-2.4z" fill="#FFFFFF" p-id="4221"></path></svg>